<?xml version="1.0" encoding="UTF-8" standalone="no"?>
<svg
    width="1710.205"
    height="355.472"
    viewBox="0 0 1710.205 355.472"
    version="1.1"
    id="svgly"
    xmlns="http://www.w3.org/2000/svg">
  <g
      id="svgGroup"
      stroke-linecap="round"
      fill-rule="evenodd"
      font-size="9pt"
      stroke="#000"
      stroke-width="0.25"
      fill="black"
      style="stroke:#000;stroke-width:0.25;fill:black">
    <path
        d="m 1034.424,147.953 v 48.828 H 888.428 v 109.375 h 170.654 v 49.316 H 826.66 V 0.004 h 230.713 V 49.808 H 888.428 v 98.145 z M 557.861,0.004 632.568,128.422 707.275,0.004 h 71.289 L 671.143,176.273 781.006,355.472 H 708.984 L 632.568,225.101 555.908,355.472 H 484.131 L 594.238,176.273 486.572,0.004 Z M 1644.043,355.472 1572.754,218.51 h -68.848 v 136.962 h -61.767 V 0.004 h 125 c 28.3833,0 52.285,4.4036667 71.705,13.211 8.3564,3.742813 16.1796,8.577289 23.265,14.377 22.2987,18.392 33.448,45.003333 33.448,79.834 0,23.76267 -5.7373,43.66 -17.212,59.692 -8.8542,12.24642 -20.2642,22.42225 -33.44,29.823 -4.6931,2.68393 -9.5469,5.07645 -14.534,7.164 l 79.834,148.194 v 3.173 z M 236.572,0.004 318.359,168.461 400.146,0.004 h 68.36 L 349.365,224.613 V 355.472 H 287.354 V 224.613 L 167.969,0.004 Z m 1100.83,355.468 -29.052,-82.763 h -137.696 l -28.808,82.763 h -64.209 L 1211.914,0.004 h 55.42 l 134.521,355.468 z M 61.768,0.004 v 306.152 h 225.586 l 0,49.31598 L 0,355.472 V 0.004 Z m 1442.138,49.804 v 119.141 h 63.477 c 6.5268,0.0439 13.0422,-0.55125 19.453,-1.777 11.8013,-2.342 21.593,-6.99867 29.375,-13.97 9.1727,-8.23187 15.1075,-19.46633 16.737,-31.683 0.5725,-3.77547 0.8536,-7.58939 0.841,-11.408 0.048,-6.02468 -0.5813,-12.03566 -1.875,-17.92 -2.428,-10.636 -7.2147,-19.392333 -14.36,-26.269 -10.824,-10.416667 -26.978,-15.788 -48.462,-16.114 z m -264.404,25.635 -51.514,147.461 h 103.028 z"
        vector-effect="non-scaling-stroke"
        id="lypath" />
  </g>
</svg>
