<?xml version="1.0" encoding="UTF-8" standalone="no"?>
<!-- Generator: Adobe Illustrator 23.0.5, SVG Export Plug-In . SVG Version: 6.00 Build 0)  -->

<svg
   version="1.1"
   id="svglogo"
   x="0px"
   y="0px"
   viewBox="0 0 975 975"
   style="enable-background:new 0 0 975 975;"
   xml:space="preserve"
   xmlns="http://www.w3.org/2000/svg">
<style
   type="text/css"
   id="style291">
	.st0{display:none;}
	.st1{fill:#7C4DFF;}
</style>
<g
   id="layer1"
   class="st0">
</g>
<g
   id="g14"
   transform="matrix(0.09816967,0,0,-0.10000005,15.508993,974.65721)">
	<circle
   style="enable-background:new 0 0 975 975;fill:#ffffff"
   id="path175"
   cx="487.5"
   cy="487.5"
   r="487.5"
   transform="matrix(10.186446,0,0,-9.999995,-157.98151,9746.5672)" />
	<path
   id="path7891"
   class="st1"
   d="M3582.1,4204.6l126.1,302.2c0,0-435.2-167.7-603.2-251.7c-180-88-389-205-381-212   c8-8,611,106,799,151L3582.1,4204.6z" />
	<path
   id="path16103"
   d="M4757,9607   c-2,1-15-18-31-42c-15-25-69-89-119-143c-51-54-139-167-197-250l-170-262c-31-52-129-230-218-395c-88-165-190-356-227-425   s-216-406-397-750c-182-344-397-749-478-900c-81-151-224-421-317-600c-94-179-222-420-286-536c-63-116-134-248-157-295   c-24-46-72-136-108-199c-72-128-112-204-277-525c-63-121-155-296-205-390c-229-428-364-725-494-1085   c-36-102-130.6-394.1-130.6-394.1l154.6,218.1c0,0,42,63.1,93,133.1c109,149,227,324,319,473c64,104,96,162,368,670   c78,146,146,270,151,276c12,15,117,213,270,508c72,138,133,255,138,260c5,6,74,137,153,291c80,154,197,375,260,490   c63,116,184,341,268,500c84,160,199,376,255,480c113,209,515,964,715,1340c70,132,173,326,228,430c56,105,117,225,137,269   l33.7,70.5l24.3-12.5c16.1-10.6,0,0,96-58c71.7-42,98.2-63.8,195-170c120-140,180-305,196-541c16-219-10-481-71-703   c-167-618-469-1364-811-2003c-199-373-307-585-359-710c-50-120-50.8-120.3-50.8-120.3l-126.1-302.2L3564,4154c-29-69-64-164-60-164   c3,0,208.9,239.7,208.9,239.7l299.2,381.4l86.4,128.6c105,183.1,205.5,356.2,389.5,731.2c299,607,443,959,633,1547   c111,346,146,533,156,827c5,167,3,206-17,320c-40,241-139.7,434-262.7,596c-82,109-315.5,247.9-387.3,289l-24.7,14.1l35.7,86.9   c22,55,49,144,60,197c12,53,34,132,49,176C4746,9568,4758,9606,4757,9607z" />
	<path
   id="path14712"
   class="st1"
   d="M4009.8,4610   l-296.9-380.3L4485,4455c278,78,780,201,960,235c732,137,996,168,1595,189c279,10,370,5,570-34c162-32,262-64,386-126   c239-119,357-256,433-505c29-94,31-248,31-248c-12.5-153.7-5.5-152.4-51-351l-19-51l-213-13c-116-6-252-18-302-25   c-49-8-146-19-215-26c-249-24-731-82-1007-120c-155-22-360-49-455-60c-95-11-317-38-493-60c-413-53-707-89-1140-140   c-192-23-541-66-775-96c-234-29-580-72-770-94c-611-71-682-80-880-110c-107-17-283-44-390-61c-266-41-568-103.1-650-125.1l0,0   l-93.8-27.1l0,0L877,2550l-39-18l49-7c112-16.2,187.5-20.9,296-23c100-2,236,2,302,8c142,12,570,46,705,55c88,6,543,60,995,120   c105,13,363,45,575,70c212,25,648,79,970,120c322,41,650,81,730,90c80,9,341,40,580,70c239,29,518,63,620,75   c168,19,509,62,1132,141c125,15,283,37,350,49c181,30,553,124,629,159c36,16,96,39,135,50l69,20l-60,1c-33,0-96,7-140,15   c-44,8-110,15-146,15h-66l42,85c65.9,161.6,92,270,73,537c-18,250-121,450-322,627c-132,116-287,196-501,257   c-424,122-900,118-1895-17c-260-35-368-56-890-170c-201-44-674-164-919-234L4009.8,4610z" />
	<path
   id="path8"
   d="M3834,9430c-305-26-552-89-837-214c-313-137-551-270-816-455   c-491-343-834-692-1207-1226c-316-453-577-1077-703-1680c-99-479-117-1121-45-1615c23-153,88-460,123-575c87-283,200-523,349-740   c77-112,197-253,197-253l-47.3,190.3c-111,377.7-72.6,236.7-111,377.7L680,3450c-80.7,298.3-43,182-74,300   c-79.9,355-129,552-152,852c-32,414,5,848,112,1331c96,431,268,850,527,1282c197,330,368,545,656,829c371,367,613,548,1046,785   c205,112,354,179,951,421c132,54,265,110,294,125c30,15,34,16.1,90,40l35,13l-30-1c-88.2,3.2-70,2-120,5   C3966,9435,3884,9434,3834,9430z" />
	<path
   id="path8-1"
   d="M1260.6,1998.7c178-272.3,359.7-470.6,616.4-671.6   c281.7-220.9,521.7-373.6,822.1-524c556.8-278.6,1044-415.1,1712.5-481.6c566.8-56,1259.3,30.3,1864.5,232.1   c480.2,161.3,1065.6,485.2,1472.5,814.9c125.7,102.8,368.3,326.7,453.8,420.5c209.9,231.8,368.1,465.2,487.3,720.1   c61.5,131.7,127.2,319.1,127.2,319.1s0,0-146.9-145.4c-282.8-304.6-175.7-193.7-282.8-304.6l-159.6-164.7   c-226.8-234-141.6-136.9-231.8-228.6c-278.2-263.4-430.1-414-687.7-594.8c-355.4-249.7-763.7-445.4-1251.6-601.3   c-435.6-138.7-898.9-199.7-1418-186c-396.1,9.7-675.8,56-1076.7,175.4c-517.5,153.3-802.7,284.2-1235,564.6   c-204.5,132.9-340.2,237.1-860.1,668.7c-115.4,95.2-233.1,190.2-261.3,209.5c-28.7,20.2-52.8,40.1-81.5,63.2l-29.4,25.9l16.1-27.6   c17.6-32.5,33.7-66.7,56.4-115.2C1189.2,2119.9,1231.7,2043.5,1260.6,1998.7L1260.6,1998.7z" />
	<path
   id="path8-5"
   class="st1"
   d="M5282,9433.6c325.1-7.3,591.1-55,901.4-162.4   c340.8-117.6,601.8-235.8,894.8-404.2c542.9-312.3,929.3-639.6,1359.5-1149.8c364.5-432.8,681.8-1039.7,854.6-1633.8   c136.1-472,151.1-1111.7,106.9-1609.2c-14.4-154.1-63.4-449.5-93-566.5c-73.8-287.8-74.7-346.8-260.8-730   c-91.6-165.3-207.7-309.6-207.7-309.6l37.7,192.9c93.1,383.8,61.6,240.7,93.1,383.8l46.6,213c66.2,302.7,33.8,184.3,58.9,304   c61.6,359.2,100.9,558.9,105.8,859.7c7,415.2-60.4,846.1-205.3,1321.6c-129.8,424.3-339.4,832-642.1,1247.3   c-230.3,317.3-425.6,521.4-749.4,787.3c-417.2,343.6-685.6,509.4-1160.1,719.5c-224.6,99.2-387,157-1035.7,362   c-143.5,45.8-288.1,93.6-319.8,106.8c-32.8,13.1-26.9,10.4-98,34.4l-38,10.8l31.9,0.8c79.7,7.2,74.1,6.3,126.9,12.3   C5141.7,9430.5,5228.7,9434.5,5282,9433.6L5282,9433.6z" />
</g>
</svg>
